<svg width="512" height="512" viewBox="0 0 512 512" fill="none" xmlns="http://www.w3.org/2000/svg">
<g clip-path="url(#clip0_2021_66)">
<path d="M107.209 497.69C87.1629 497.69 72.3013 487.149 62.624 466.066C53.2923 444.984 48.6265 413.36 48.6265 371.194C48.6265 329.029 54.8476 279.087 67.2899 221.369C79.7321 163.651 94.2481 115.783 110.838 77.7647C127.773 39.7467 142.462 20.7377 154.904 20.7377C160.779 20.7377 163.717 24.1939 163.717 31.1063C156.459 47.6959 147.3 72.7532 136.241 106.278C125.181 139.457 115.849 170.217 108.246 198.558C100.988 226.899 94.2481 260.078 88.0269 298.096C82.1514 336.114 79.2137 368.775 79.2137 396.079C79.2137 423.037 81.8058 443.774 86.9901 458.29C92.52 473.151 99.9507 480.582 109.282 480.582C117.232 480.582 124.835 476.78 132.093 469.177C139.351 461.919 144.535 454.661 147.646 447.403C149.374 443.601 152.485 442.564 156.978 444.292C158.706 444.984 159.051 446.366 158.015 448.44C157.323 450.859 155.941 453.797 153.867 457.253C152.139 460.709 148.856 466.066 144.017 473.324C133.648 489.568 121.379 497.69 107.209 497.69ZM294.076 358.752C294.076 316.241 301.853 262.497 317.405 197.521C318.442 194.065 317.405 192.51 314.295 192.855C311.876 193.201 309.629 194.238 307.555 195.966C292.348 208.754 275.586 232.429 257.268 266.99C238.95 301.552 224.261 333.176 213.202 361.863C202.142 390.203 196.612 406.793 196.612 411.631C196.612 415.779 194.02 417.853 188.836 417.853C178.467 417.853 173.283 404.201 173.283 376.897C173.283 325.054 178.467 278.396 188.836 236.922C199.204 195.102 211.819 174.192 226.681 174.192C233.247 174.192 236.531 177.821 236.531 185.079C220.632 235.194 209.227 286.691 202.315 339.57H206.981C252.602 225.516 294.595 168.489 332.958 168.489C349.548 168.489 357.843 176.611 357.843 192.855C341.599 241.242 329.848 288.937 322.59 335.941H326.737C338.143 311.748 349.548 289.801 360.953 270.101C372.704 250.055 386.356 231.565 401.909 214.629C417.462 197.348 431.459 188.708 443.902 188.708C460.491 188.708 468.786 196.657 468.786 212.556C450.814 272.347 441.828 330.584 441.828 387.265C441.828 423.901 447.358 442.219 458.417 442.219C462.219 442.219 466.021 440.491 469.823 437.034C473.625 433.924 476.217 432.369 477.599 432.369C482.438 432.369 482.265 436.17 477.081 443.774C475.698 446.193 472.588 449.477 467.749 453.624C463.256 457.771 458.763 459.845 454.27 459.845C440.791 459.845 430.25 450.341 422.646 431.332C415.388 412.668 411.759 388.302 411.759 358.234C411.759 305.354 417.289 258.868 428.349 218.777C429.04 216.357 428.176 215.148 425.757 215.148C423.683 215.493 421.609 216.53 419.535 218.258C399.835 235.194 377.889 266.645 353.695 312.612C329.502 358.234 317.405 385.192 317.405 393.487C317.405 397.634 314.64 399.708 309.111 399.708C299.088 399.708 294.076 386.056 294.076 358.752Z" fill="#CAD2C5"/>
</g>
<defs>
<clipPath id="clip0_2021_66">
<rect width="512" height="512" rx="10" fill="white"/>
</clipPath>
</defs>
</svg>
